<?xml version="1.0" encoding="utf-8"?>
<!-- Generator: Adobe Illustrator 17.0.0, SVG Export Plug-In . SVG Version: 6.00 Build 0)  -->
<!DOCTYPE svg PUBLIC "-//W3C//DTD SVG 1.1//EN" "http://www.w3.org/Graphics/SVG/1.1/DTD/svg11.dtd">
<svg version="1.1" id="Layer_1" xmlns:sketch="http://www.bohemiancoding.com/sketch/ns"
	 xmlns="http://www.w3.org/2000/svg" xmlns:xlink="http://www.w3.org/1999/xlink" x="0px" y="0px" width="50px" height="34px"
	 viewBox="-3.5 -2.5 50 34" enable-background="new -3.5 -2.5 50 34" xml:space="preserve">
<title>Imported Layers</title>
<desc>Created with Sketch.</desc>
<g id="Page-1" sketch:type="MSPage">
	<g id="Website_desktop" transform="translate(-40.000000, -40.000000)" sketch:type="MSArtboardGroup">
		<path id="Imported-Layers" sketch:type="MSShapeGroup" fill="#0DA5F3" d="M85.536,51.679l-1.725-1.954l-9.293-10.513
			c-0.439-0.525-1.107-0.945-2.002-1.26c-0.845-0.301-1.707-0.452-2.585-0.452H43.534c-1.991,0-3.639,0.654-4.941,1.964
			c-1.395,1.453-2.093,3.096-2.093,4.93v20.127c0,1.889,0.698,3.536,2.093,4.938c1.302,1.36,2.95,2.041,4.941,2.041h26.397
			c0.966,0,1.843-0.165,2.633-0.494c0.827-0.348,1.516-0.864,2.065-1.546l9.182-11.276l1.725-2.117
			C86.821,54.469,86.821,53.007,85.536,51.679L85.536,51.679z M67.547,50.286L57.019,60.705l-6.728-6.63
			c-0.093-0.051-0.148-0.151-0.167-0.299l2.197-2.068c0.092,0.051,0.192,0.095,0.298,0.133l4.4,4.555l8.247-8.315
			c0.217-0.199,0.397-0.318,0.541-0.355l2.093,1.991C67.881,49.934,67.764,50.124,67.547,50.286L67.547,50.286z"/>
	</g>
</g>
</svg>
