<?xml version="1.0" encoding="utf-8"?>
<svg xmlns="http://www.w3.org/2000/svg" width="36" height="36" viewBox="0 0 36 36">
    <g fill="#9197a3" fill-rule="evenodd" stroke="#9197a3" stroke-width=".5">
        <path
            d="M25.015 13.12a8.494 8.494 0 0 1 1.785 5.213c0 4.756-3.908 8.628-8.708 8.628a7.63 7.63 0 0 1-1.846-.213l1.292-1.25a.586.586 0 0 0 0-.854.599.599 0 0 0-.861 0l-2.862 2.774 2.831 3.08a.599.599 0 0 0 .862.03.586.586 0 0 0 .03-.854l-1.569-1.737a9.573 9.573 0 0 0 2.093.244c5.476 0 9.938-4.421 9.938-9.848a9.66 9.66 0 0 0-2.03-5.945c-.216-.274-.585-.305-.862-.122-.246.213-.277.58-.093.854zM18.554 6.626c0 .152.061.305.154.396l1.569 1.707a10.426 10.426 0 0 0-2.185-.244c-5.477 0-9.938 4.421-9.938 9.848 0 2.226.738 4.33 2.123 6.067.215.274.585.305.861.092.277-.214.308-.58.093-.854a8.56 8.56 0 0 1-1.846-5.305c0-4.756 3.907-8.628 8.707-8.628.646 0 1.323.091 1.939.213l-1.293 1.28a.586.586 0 0 0 0 .855.599.599 0 0 0 .862 0l2.862-2.775-2.831-3.08a.599.599 0 0 0-.862-.03.547.547 0 0 0-.215.458z"></path>
    </g>
</svg>
