<?xml version="1.0" encoding="utf-8"?>
<svg xmlns="http://www.w3.org/2000/svg" width="36" height="36" viewBox="0 0 36 36">
    <g fill="none" fill-rule="evenodd">
        <path d="M0 0h36v36H0z"></path>
        <path
            d="M29 17.313c.001-.38-.228-.655-.688-.688l-1.718-.344c-.157-.034-.37-.229-.344-.343-.286-.85-.567-1.528-1.031-2.063-.036-.33-.024-.618 0-.688l1.031-1.718c.317-.15.287-.508 0-.688L25.219 9.75c-.207-.293-.565-.324-.688 0l-1.718 1.031c-.096.017-.385.03-.688 0-.561-.47-1.24-.752-2.063-1.031-.14.02-.335-.194-.343-.344l-.344-1.719c-.046-.465-.32-.69-.688-.687h-1.375c-.38-.001-.656.228-.687.688l-.344 1.718c-.035.143-.23.357-.343.344-.851.272-1.53.553-2.063 1.031-.33.023-.62.01-.688 0L11.47 9.75c-.15-.33-.509-.3-.688 0L9.75 10.781c-.294.183-.324.542 0 .688l1.031 1.719c.017.072.029.36 0 .687-.47.538-.752 1.216-1.031 2.063.017.119-.2.312-.344.343l-1.719.344c-.466.034-.691.31-.687.688v1.375c-.002.37.222.643.688.687l1.718.344c.143.023.356.218.344.343.272.84.553 1.518 1.031 2.063.022.32.01.608 0 .688L9.75 24.53c-.321.138-.288.488 0 .688l1.031 1.031c.18.268.537.298.688 0l1.719-1.031c.068-.041.356-.054.687 0 .534.446 1.212.728 2.063 1.031.12-.04.315.182.343.344l.344 1.718c.028.46.303.69.688.688h1.375c.368.003.645-.227.687-.688l.344-1.718c.022-.154.216-.367.343-.344.837-.283 1.515-.564 2.063-1.031.317-.033.606-.02.688 0l1.718 1.031c.136.31.485.278.688 0l1.031-1.031c.28-.204.31-.562 0-.688l-1.031-1.718c-.03-.094-.043-.382 0-.688.457-.559.739-1.237 1.031-2.063-.033-.139.18-.333.344-.343l1.718-.344c.456-.04.686-.315.688-.688v-1.375z"
            stroke="#9197a3"
            stroke-width="2"></path>
        <circle stroke="#9197a3" stroke-width="2" cx="17.875" cy="18.125" r="2.875"></circle>
    </g>
</svg>
